<?xml version="1.0" standalone="no"?>
<!DOCTYPE svg PUBLIC "-//W3C//DTD SVG 20010904//EN"
 "http://www.w3.org/TR/2001/REC-SVG-20010904/DTD/svg10.dtd">
<svg version="1.0" xmlns="http://www.w3.org/2000/svg"
 width="700.000000pt" height="700.000000pt" viewBox="0 0 700.000000 700.000000"
 preserveAspectRatio="xMidYMid meet">
<metadata>
Created by potrace 1.11, written by Peter Selinger 2001-2013
</metadata>
<g transform="translate(0.000000,700.000000) scale(0.100000,-0.100000)"
fill="#000000" stroke="none">
<path d="M0 3507 l0 -3493 3493 0 3492 1 0 3493 1 3492 -3493 0 -3493 0 0
-3493z m2113 31 c0 -1041 -2 -1898 -2 -1903 -1 -8 -175 -13 -228 -6 -8 1 -11
475 -11 1900 l1 1899 121 1 121 1 -2 -1892z m1957 1881 c191 -26 287 -52 413
-115 292 -145 480 -409 524 -737 12 -92 7 -256 -12 -347 -2 -14 -7 -38 -11
-55 -7 -35 -38 -125 -61 -175 -74 -162 -245 -332 -427 -423 l-49 -24 93 -47
c227 -114 392 -276 481 -472 57 -126 81 -241 85 -409 2 -82 -1 -172 -7 -200
-5 -27 -12 -62 -14 -77 -8 -44 -55 -169 -82 -218 -108 -195 -258 -323 -498
-425 -85 -36 -262 -79 -375 -90 -36 -4 -76 -9 -90 -11 -62 -10 -455 -3 -601
11 -30 3 -79 7 -109 10 -30 3 -66 7 -80 10 -14 2 -49 7 -79 10 -30 4 -61 8
-70 10 -9 1 -73 13 -143 26 l-128 23 0 978 0 978 618 1 c339 0 625 2 634 4 9
2 34 5 55 8 156 22 308 92 414 189 115 107 197 271 216 432 53 455 -198 813
-627 895 -110 21 -173 23 -600 23 -239 0 -442 1 -450 4 -14 4 -17 59 -11 201
l1 23 463 -2 c254 0 491 -5 527 -9z"/>
<path d="M3080 3420 c-4 -3 -8 -350 -8 -772 l0 -766 31 -6 c18 -3 50 -8 72
-11 22 -4 51 -8 65 -11 14 -2 50 -6 80 -9 30 -3 64 -7 76 -9 126 -25 735 -25
776 0 4 2 26 7 50 10 74 10 200 54 293 102 166 86 277 222 331 407 26 87 26
343 0 440 -90 341 -345 565 -702 616 -78 11 -1047 19 -1064 9z"/>
</g>
</svg>
