<?xml version="1.0" encoding="UTF-8" standalone="no"?>
<svg width="200px" height="200px" viewBox="0 0 35 35" version="1.1" xmlns="http://www.w3.org/2000/svg" xmlns:xlink="http://www.w3.org/1999/xlink" xmlns:sketch="http://www.bohemiancoding.com/sketch/ns">
    <g id="Page-1" stroke="none" stroke-width="1" fill="none" fill-rule="evenodd" sketch:type="MSPage">
        <g id="logo" sketch:type="MSLayerGroup">
            <path d="M212.7248,16.9507692 C212.182473,8.09953846 202.5417,0.440461538 198.570126,0.355923077 C194.596959,0.270307692 187.171705,9.64438462 186.871062,19.1686923 C186.58954,28.0990769 194.211328,34.223 197.492378,35 C197.58374,30.7983846 197.919972,15.3289231 197.976276,13.5250769 C198.094727,9.83876923 198.275857,4.10307692 198.891486,3.91246154 C199.244715,3.80315385 199.725957,7.02746154 199.666997,8.93307692 C199.65478,9.29653846 199.65053,10.4741538 199.65053,12.1455385 C200.315027,11.4697692 201.008737,10.7681538 201.430488,10.3535385 C202.58685,9.21738462 203.098368,9.35253846 202.543825,10.3659231 C202.202281,10.9894615 200.73359,13.0625385 199.653717,14.5648462 C199.65956,17.5947692 199.673371,21.4081538 199.687712,24.9614615 C201.212707,23.1764615 203.079777,21.0366154 204.060321,20.0851538 C206.11755,18.0912308 206.336393,18.3426923 205.36488,20.4356923 C204.768373,21.7183077 201.851176,25.1396923 199.698336,27.8379231 C199.711615,30.9911538 199.722239,33.642 199.724363,34.9073846 C205.499797,33.6371538 213.255441,25.641 212.7248,16.9507692" id="Fill-16" fill="#DB6A26" sketch:type="MSShapeGroup" transform="translate(-182)"/>
        </g>
    </g>
</svg>
